<svg width="200" height="200" viewBox="0 0 200 200" fill="none" xmlns="http://www.w3.org/2000/svg">
  <!-- Background -->
  <rect width="200" height="200" rx="20" fill="#000000"/>
  
  <!-- B letter -->
  <path d="M50 50h30c12 0 22 10 22 22s-10 22-22 22h-10l20 56H50V50z" fill="#FFFFFF"/>
  <path d="M70 70h12c5 0 9 4 9 9s-4 9-9 9H70V70z" fill="#000000"/>
  
  <!-- W letter -->
  <path d="M110 50h10l15 50 15-50h10v100h-10V75l-15 50-15-50v75h-10V50z" fill="#FFFFFF"/>
  
  <!-- Premium accent -->
  <line x1="40" y1="40" x2="160" y2="40" stroke="#FFFFFF" stroke-width="2" opacity="0.3"/>
  <line x1="40" y1="160" x2="160" y2="160" stroke="#FFFFFF" stroke-width="2" opacity="0.3"/>
</svg> 